<svg height="512pt" viewBox="0 0 512 512" width="512pt" xmlns="http://www.w3.org/2000/svg"><path d="m156.96875 264.039062c4.140625 0 7.5-3.355468 7.5-7.5 0-50.410156 41.011719-91.421874 91.421875-91.421874 4.140625 0 7.5-3.355469 7.5-7.5 0-4.140626-3.359375-7.5-7.5-7.5-58.679687 0-106.421875 47.742187-106.421875 106.421874 0 4.144532 3.355469 7.5 7.5 7.5zm0 0"/><path d="m263.390625 115.5c0-4.140625-3.355469-7.5-7.5-7.5-81.902344 0-148.539063 66.636719-148.539063 148.539062 0 4.144532 3.359376 7.5 7.5 7.5 4.140626 0 7.5-3.355468 7.5-7.5 0-73.632812 59.90625-133.539062 133.539063-133.539062 4.144531 0 7.5-3.359375 7.5-7.5zm0 0"/><path d="m472.84375 0h-433.6875c-21.589844 0-39.15625 17.566406-39.15625 39.15625v433.6875c0 21.589844 17.566406 39.15625 39.15625 39.15625h433.6875c21.589844 0 39.15625-17.566406 39.15625-39.15625v-433.6875c0-21.589844-17.566406-39.15625-39.15625-39.15625zm24.15625 472.84375c0 13.320312-10.835938 24.15625-24.15625 24.15625h-433.6875c-13.320312 0-24.15625-10.835938-24.15625-24.15625v-433.6875c0-13.320312 10.835938-24.15625 24.15625-24.15625h433.6875c13.320312 0 24.15625 10.835938 24.15625 24.15625zm0 0"/><path d="m256 318.292969c34.359375 0 62.3125-27.953125 62.3125-62.3125s-27.953125-62.316407-62.3125-62.316407-62.3125 27.957032-62.3125 62.316407 27.953125 62.3125 62.3125 62.3125zm0-109.628907c26.089844 0 47.3125 21.226563 47.3125 47.316407 0 26.089843-21.222656 47.3125-47.3125 47.3125s-47.3125-21.222657-47.3125-47.3125c0-26.089844 21.222656-47.316407 47.3125-47.316407zm0 0"/><path d="m256 280.460938c13.5 0 24.480469-10.984376 24.480469-24.480469 0-13.5-10.980469-24.480469-24.480469-24.480469-13.496094 0-24.480469 10.980469-24.480469 24.480469 0 13.496093 10.984375 24.480469 24.480469 24.480469zm0-33.960938c5.226562 0 9.480469 4.253906 9.480469 9.480469 0 5.226562-4.253907 9.480469-9.480469 9.480469s-9.480469-4.253907-9.480469-9.480469c0-5.226563 4.253907-9.480469 9.480469-9.480469zm0 0"/><path d="m437.5 46.054688c-20.03125 0-36.332031 16.296874-36.332031 36.332031 0 14.765625 8.855469 27.503906 21.535156 33.179687l-31.609375 137.863282c-3.152344 14.003906-8.757812 27.0625-16.6875 38.910156-7.980469-2.847656-17.253906-1.125-23.695312 5.199218l-23.929688 23.507813c-8.980469 8.820313-9.109375 23.304687-.289062 32.289063 4.328124 4.402343 10.109374 6.828124 16.289062 6.828124 6.019531 0 11.699219-2.324218 15.996094-6.542968l23.929687-23.507813c7.75-7.609375 8.910157-19.441406 3.410157-28.3125 9.359374-13.675781 15.945312-28.808593 19.605468-45.046875l31.644532-138.035156h.132812c20.03125 0 36.328125-16.296875 36.328125-36.332031.003906-20.035157-16.296875-36.332031-36.328125-36.332031zm-65.304688 273.359374-23.929687 23.507813c-1.472656 1.445313-3.421875 2.242187-5.488281 2.242187-2.117188 0-4.101563-.832031-5.585938-2.34375-3.023437-3.078124-2.980468-8.046874.101563-11.074218l23.925781-23.503906c1.523438-1.496094 3.507812-2.242188 5.492188-2.242188 2.027343 0 4.054687.78125 5.585937 2.339844 3.023437 3.082031 2.980469 8.046875-.101563 11.074218zm65.304688-215.699218c-.296875 0-.589844-.003906-.882812-.015625-2.117188-.933594-4.851563-1.527344-7.101563-1.535157-7.820313-3.167968-13.34375-10.839843-13.34375-19.777343 0-11.765625 9.566406-21.332031 21.328125-21.332031s21.332031 9.566406 21.332031 21.332031c0 11.761719-9.570312 21.328125-21.332031 21.328125zm0 0"/><path d="m62.242188 422.625c-15.121094 0-27.417969 12.300781-27.417969 27.421875 0 15.117187 12.296875 27.417969 27.417969 27.417969 15.117187 0 27.417968-12.300782 27.417968-27.417969 0-15.121094-12.300781-27.421875-27.417968-27.421875zm0 39.839844c-6.847657 0-12.417969-5.570313-12.417969-12.417969 0-6.851563 5.570312-12.421875 12.417969-12.421875 6.847656 0 12.417968 5.570312 12.417968 12.421875 0 6.847656-5.570312 12.417969-12.417968 12.417969zm0 0"/><path d="m129.179688 422.625c-15.117188 0-27.417969 12.300781-27.417969 27.421875 0 15.117187 12.300781 27.417969 27.417969 27.417969 15.121093 0 27.421874-12.300782 27.421874-27.417969 0-15.121094-12.300781-27.421875-27.421874-27.421875zm0 39.839844c-6.847657 0-12.417969-5.570313-12.417969-12.417969 0-6.851563 5.570312-12.421875 12.417969-12.421875 6.847656 0 12.421874 5.570312 12.421874 12.421875 0 6.847656-5.574218 12.417969-12.421874 12.417969zm0 0"/><path d="m428.523438 193.085938c-3.945313 1.257812-6.125 5.476562-4.867188 9.425781 5.488281 17.222656 8.269531 35.210937 8.269531 53.46875 0 97.003906-78.917969 175.925781-175.925781 175.925781-97.003906 0-175.925781-78.921875-175.925781-175.925781 0-97.007813 78.917969-175.925781 175.925781-175.925781 28.183594 0 55.101562 6.460937 80.011719 19.203124 23.765625 12.15625 44.8125 29.90625 60.867187 51.332032 2.484375 3.3125 7.183594 3.988281 10.5 1.503906 3.3125-2.484375 3.988282-7.1875 1.503906-10.5-17.417968-23.242188-40.25-42.5-66.039062-55.691406-27.042969-13.835938-56.261719-20.847656-86.84375-20.847656-105.277344 0-190.925781 85.648437-190.925781 190.925781 0 105.277343 85.648437 190.925781 190.925781 190.925781s190.925781-85.648438 190.925781-190.925781c0-19.804688-3.019531-39.328125-8.980469-58.023438-1.253906-3.945312-5.476562-6.125-9.421874-4.871093zm0 0"/></svg>