<svg height="512pt" viewBox="0 0 512 512" width="512pt" xmlns="http://www.w3.org/2000/svg"><path d="m479.386719 512h-446.773438c-18.011719 0-32.613281-14.601562-32.613281-32.613281v-446.773438c0-18.011719 14.601562-32.613281 32.613281-32.613281h446.777344c18.007813 0 32.609375 14.601562 32.609375 32.613281v446.777344c0 18.007813-14.601562 32.609375-32.613281 32.609375zm0 0" fill="#ededed"/><path d="m479.386719 0h-20.507813v512h20.507813c18.011719 0 32.613281-14.601562 32.613281-32.613281v-446.773438c0-18.011719-14.601562-32.613281-32.613281-32.613281zm0 0" fill="#d6d6d6"/><path d="m444.960938 255.980469c0 104.359375-84.601563 188.960937-188.960938 188.960937s-188.960938-84.601562-188.960938-188.960937c0-104.363281 84.601563-188.964844 188.960938-188.964844 61.898438 0 116.847656 29.761719 151.3125 75.757813 7.164062 9.558593 13.441406 19.820312 18.714844 30.660156 3.796875 7.804687 7.070312 15.914062 9.78125 24.277344 5.941406 18.351562 9.152344 37.933593 9.152344 58.269531zm0 0" fill="#345863"/><path d="m256 67.015625c-9.03125 0-17.910156.648437-26.601562 1.875 91.761718 12.929687 162.359374 91.757813 162.359374 187.089844 0 95.328125-70.597656 174.15625-162.359374 187.085937 8.691406 1.226563 17.570312 1.875 26.601562 1.875 104.359375 0 188.960938-84.601562 188.960938-188.960937 0-104.363281-84.601563-188.964844-188.960938-188.964844zm0 0" fill="#1e4751"/><path d="m312.46875 255.980469c0 31.183593-25.28125 56.464843-56.46875 56.464843s-56.46875-25.28125-56.46875-56.464843c0-31.1875 25.28125-56.46875 56.46875-56.46875s56.46875 25.28125 56.46875 56.46875zm0 0" fill="#f43b45"/><path d="m273.492188 255.980469c0 9.660156-7.832032 17.492187-17.492188 17.492187s-17.492188-7.832031-17.492188-17.492187c0-9.660157 7.832032-17.492188 17.492188-17.492188s17.492188 7.832031 17.492188 17.492188zm0 0" fill="#ededed"/><path d="m372.0625 321.546875c-1.691406 0-3.394531-.554687-4.816406-1.691406-3.335938-2.664063-3.878906-7.523438-1.214844-10.859375l8.140625-10.191406c10.199219-13.585938 17.265625-28.875 21-45.453126l36.332031-156.375c.964844-4.15625 5.117188-6.742187 9.273438-5.777343 4.15625.964843 6.742187 5.121093 5.777344 9.277343l-36.320313 156.324219c-4.214844 18.710938-12.21875 36.015625-23.78125 51.382813-.042969.058594-.089844.121094-.136719.179687l-8.214844 10.277344c-1.523437 1.910156-3.773437 2.90625-6.039062 2.90625zm0 0" fill="#ef8229"/><path d="m472.679688 77.144531c0 16.402344-13.296876 29.703125-29.703126 29.703125-16.402343 0-29.699218-13.300781-29.699218-29.703125 0-16.402343 13.296875-29.699219 29.699218-29.699219 16.40625 0 29.703126 13.296876 29.703126 29.699219zm0 0" fill="#345863"/><path d="m345.398438 355.582031c-4.089844 0-8.175782-1.578125-11.265626-4.726562-6.113281-6.21875-6.023437-16.21875.199219-22.332031l24.652344-24.21875c6.222656-6.109376 16.21875-6.019532 22.332031.199218 6.113282 6.222656 6.023438 16.222656-.199218 22.335938l-24.652344 24.214844c-3.074219 3.019531-7.070313 4.527343-11.066406 4.527343zm0 0" fill="#ffe471"/><g fill="#ef8229"><path d="m76.914062 455.902344c0 11.332031-9.1875 20.519531-20.519531 20.519531s-20.519531-9.1875-20.519531-20.519531c0-11.332032 9.1875-20.519532 20.519531-20.519532s20.519531 9.1875 20.519531 20.519532zm0 0"/><path d="m145.871094 455.902344c0 11.332031-9.183594 20.519531-20.519532 20.519531-11.332031 0-20.519531-9.1875-20.519531-20.519531 0-11.332032 9.1875-20.519532 20.519531-20.519532 11.335938 0 20.519532 9.1875 20.519532 20.519532zm0 0"/></g></svg>